<?xml version="1.0" encoding="UTF-8" standalone="no"?>
<svg
   xmlns:dc="http://purl.org/dc/elements/1.1/"
   xmlns:cc="http://creativecommons.org/ns#"
   xmlns:rdf="http://www.w3.org/1999/02/22-rdf-syntax-ns#"
   xmlns:svg="http://www.w3.org/2000/svg"
   xmlns="http://www.w3.org/2000/svg"
   version="1.1"
   id="svg2"
   xml:space="preserve"
   width="74.226669"
   height="105.2"
   viewBox="0 0 74.226669 105.2"><metadata
     id="metadata8"><rdf:RDF><cc:Work
         rdf:about=""><dc:format>image/svg+xml</dc:format><dc:type
           rdf:resource="http://purl.org/dc/dcmitype/StillImage" /></cc:Work></rdf:RDF></metadata><defs
     id="defs6" /><g
     id="g10"
     transform="matrix(1.3333333,0,0,-1.3333333,0,105.2)"><g
       id="g12"
       transform="translate(72,6.9)"><g
         id="g14"
         transform="translate(-68.966,-3.866)"><g
           id="g16"><g
             id="g18"><g
               id="g20"><g
                 id="g22"><g
                   id="g24"><g
                     id="g26"><path
                       d="m 27.38924,73.03165 h -5.17157 c -0.13755,0 -0.24907,-0.11153 -0.24907,-0.24907 v -1.49442 c 0,-0.13754 0.11152,-0.24906 0.24907,-0.24906 h 5.17157 c 0.13754,0 0.24906,0.11152 0.24906,0.24906 v 1.49442 c 0,0.13754 -0.11152,0.24907 -0.24906,0.24907 z"
                       style="fill:#666666;fill-opacity:1;fill-rule:nonzero;stroke:none"
                       id="path28" /></g><g
                     id="g30"><g
                       id="g32"
                       transform="scale(-1)"><g
                         id="g34" /><g
                         id="g36"
                         transform="rotate(180,-34.483,-1.933)"><g
                           id="g38" /><g
                           id="g40"
                           transform="translate(24.803,72.035)" /><g
                           id="g42"
                           transform="translate(-68.966,-3.866)" /></g></g></g></g><g
                   id="g44"><path
                     d="m 0,0.99628 v 70.29188 c 0,0.55024 0.44603,0.99628 0.99628,0.99628 h 47.61435 c 0.55023,0 0.99627,-0.44604 0.99627,-0.99628 V 0.99628 C 49.6069,0.44603 49.16086,0 48.61063,0 H 0.99628 C 0.44603,0 0,0.44603 0,0.99628 Z"
                     style="fill:#ffffff;fill-opacity:1;fill-rule:nonzero;stroke:#666666;stroke-width:0.3985;stroke-linecap:butt;stroke-linejoin:miter;stroke-miterlimit:10;stroke-dasharray:none;stroke-opacity:1"
                     id="path46" /></g><g
                   id="g48"><path
                     d="M 2.83484,11.3394 V 66.61473 H 46.77203 V 11.3394 Z"
                     style="fill:#f0f0f0;fill-opacity:1;fill-rule:nonzero;stroke:none"
                     id="path50" /><g
                     id="g52" /><g
                     id="g54" /></g><g
                   id="g56" /><g
                   id="g58"><g
                     id="g60"><path
                       d="M 8.25548,8.50455 H 3.08391 c -0.13754,0 -0.24907,-0.11153 -0.24907,-0.24907 V 3.08391 c 0,-0.13754 0.11153,-0.24907 0.24907,-0.24907 h 5.17157 c 0.13754,0 0.24907,0.11153 0.24907,0.24907 v 5.17157 c 0,0.13754 -0.11153,0.24907 -0.24907,0.24907 z"
                       style="fill:#ffffff;fill-opacity:1;fill-rule:nonzero;stroke:#666666;stroke-width:0.29887;stroke-linecap:butt;stroke-linejoin:miter;stroke-miterlimit:10;stroke-dasharray:none;stroke-opacity:1"
                       id="path62" /></g><g
                     id="g64"><g
                       id="g66"
                       transform="scale(-1)"><g
                         id="g68" /><g
                         id="g70"
                         transform="rotate(180,-34.483,-1.933)"><g
                           id="g72" /><g
                           id="g74"
                           transform="translate(5.67,5.67)" /><g
                           id="g76"
                           transform="translate(-68.966,-3.866)" /></g></g></g></g><g
                   id="g78"><g
                     id="g80"><path
                       d="m 27.38924,8.50455 h -5.17157 c -0.13755,0 -0.24907,-0.11153 -0.24907,-0.24907 V 3.08391 c 0,-0.13754 0.11152,-0.24907 0.24907,-0.24907 h 5.17157 c 0.13754,0 0.24906,0.11153 0.24906,0.24907 v 5.17157 c 0,0.13754 -0.11152,0.24907 -0.24906,0.24907 z"
                       style="fill:#666666;fill-opacity:1;fill-rule:nonzero;stroke:#666666;stroke-width:0.29887;stroke-linecap:butt;stroke-linejoin:miter;stroke-miterlimit:10;stroke-dasharray:none;stroke-opacity:1"
                       id="path82" /></g><g
                     id="g84"><g
                       id="g86"
                       transform="scale(-1)"><g
                         id="g88" /><g
                         id="g90"
                         transform="rotate(180,-34.483,-1.933)"><g
                           id="g92" /><g
                           id="g94"
                           transform="translate(24.803,5.67)" /><g
                           id="g96"
                           transform="translate(-68.966,-3.866)" /></g></g></g></g><g
                   id="g98"><g
                     id="g100"><path
                       d="m 46.52296,8.50455 h -5.17155 c -0.13754,0 -0.24907,-0.11153 -0.24907,-0.24907 V 3.08391 c 0,-0.13754 0.11153,-0.24907 0.24907,-0.24907 h 5.17155 c 0.13756,0 0.24907,0.11153 0.24907,0.24907 v 5.17157 c 0,0.13754 -0.11151,0.24907 -0.24907,0.24907 z"
                       style="fill:#ffffff;fill-opacity:1;fill-rule:nonzero;stroke:#666666;stroke-width:0.29887;stroke-linecap:butt;stroke-linejoin:miter;stroke-miterlimit:10;stroke-dasharray:none;stroke-opacity:1"
                       id="path102" /></g><g
                     id="g104"><g
                       id="g106"
                       transform="scale(-1)"><g
                         id="g108" /><g
                         id="g110"
                         transform="rotate(180,-34.483,-1.933)"><g
                           id="g112" /><g
                           id="g114"
                           transform="translate(43.937,5.67)" /><g
                           id="g116"
                           transform="translate(-68.966,-3.866)" /></g></g></g></g></g></g><g
               id="g118"><path
                 d="M 24.80345,15.68405 V 27.07964"
                 style="fill:none;stroke:#4c4c4c;stroke-width:1.59404;stroke-linecap:butt;stroke-linejoin:miter;stroke-miterlimit:10;stroke-dasharray:none;stroke-opacity:1"
                 id="path120" /><g
                 id="g122"
                 transform="rotate(-90,20.24375,-4.5597)"><g
                   id="g124"><path
                     d="M 3.04147,0 C 2.66795,0.09763 1.02614,0.65083 0,1.25287 V -1.25287 C 1.02614,-0.65083 2.66795,-0.09763 3.04147,0 Z"
                     style="fill:#4c4c4c;fill-opacity:1;fill-rule:nonzero;stroke:#4c4c4c;stroke-width:1.24722;stroke-linecap:butt;stroke-linejoin:miter;stroke-miterlimit:10;stroke-dasharray:none;stroke-opacity:1"
                     id="path126" /></g></g></g></g></g></g></g></g></svg>
