<?xml version="1.0" encoding="UTF-8" standalone="no"?>
<svg
   xmlns:dc="http://purl.org/dc/elements/1.1/"
   xmlns:cc="http://creativecommons.org/ns#"
   xmlns:rdf="http://www.w3.org/1999/02/22-rdf-syntax-ns#"
   xmlns:svg="http://www.w3.org/2000/svg"
   xmlns="http://www.w3.org/2000/svg"
   viewBox="0 0 74.226669 142"
   height="142"
   width="74.226669"
   xml:space="preserve"
   id="svg2"
   version="1.1"><metadata
     id="metadata8"><rdf:RDF><cc:Work
         rdf:about=""><dc:format>image/svg+xml</dc:format><dc:type
           rdf:resource="http://purl.org/dc/dcmitype/StillImage" /></cc:Work></rdf:RDF></metadata><defs
     id="defs6"><clipPath
       id="clipPath26"
       clipPathUnits="userSpaceOnUse"><path
         id="path24"
         d="m 0,72.28444 v 28.34682 H 49.6069 V 72.28444 Z" /></clipPath></defs><g
     transform="matrix(1.3333333,0,0,-1.3333333,0,142)"
     id="g10"><g
       transform="translate(72,34.499)"
       id="g12"><g
         transform="translate(-68.966,-31.465)"
         id="g14"><g
           id="g16"><g
             id="g18"><g
               id="g20"><g
                 clip-path="url(#clipPath26)"
                 id="g22"><g
                   id="g28"><g
                     id="g30"><path
                       id="path32"
                       style="fill:#333333;fill-opacity:1;fill-rule:nonzero;stroke:none"
                       d="m 27.38924,73.03165 h -5.17157 c -0.13755,0 -0.24907,-0.11153 -0.24907,-0.24907 v -1.49442 c 0,-0.13754 0.11152,-0.24906 0.24907,-0.24906 h 5.17157 c 0.13754,0 0.24906,0.11152 0.24906,0.24906 v 1.49442 c 0,0.13754 -0.11152,0.24907 -0.24906,0.24907 z" /></g><g
                     id="g34"><g
                       transform="scale(-1)"
                       id="g36"><g
                         id="g38" /><g
                         transform="rotate(180,-34.483,-15.7325)"
                         id="g40"><g
                           id="g42" /><g
                           transform="translate(24.803,72.035)"
                           id="g44" /><g
                           transform="translate(-68.966,-31.465)"
                           id="g46" /></g></g></g></g></g></g><g
               id="g48"><path
                 id="path50"
                 style="fill:#ffffff;fill-opacity:1;fill-rule:nonzero;stroke:#666666;stroke-width:0.3985;stroke-linecap:butt;stroke-linejoin:miter;stroke-miterlimit:10;stroke-dasharray:none;stroke-opacity:1"
                 d="m 0,0.99628 v 70.29188 c 0,0.55024 0.44603,0.99628 0.99628,0.99628 h 47.61435 c 0.55023,0 0.99627,-0.44604 0.99627,-0.99628 V 0.99628 C 49.6069,0.44603 49.16086,0 48.61063,0 H 0.99628 C 0.44603,0 0,0.44603 0,0.99628 Z" /></g><g
               id="g52"><path
                 id="path54"
                 style="fill:#f0f0f0;fill-opacity:1;fill-rule:nonzero;stroke:none"
                 d="M 2.83484,11.3394 V 66.61473 H 46.77203 V 11.3394 Z" /><g
                 id="g56" /><g
                 id="g58" /></g><g
               id="g60" /><g
               id="g62"><g
                 id="g64"><path
                   id="path66"
                   style="fill:none;stroke:#666666;stroke-width:0.29887;stroke-linecap:butt;stroke-linejoin:miter;stroke-miterlimit:10;stroke-dasharray:none;stroke-opacity:1"
                   d="M 8.25548,8.50455 H 3.08391 c -0.13754,0 -0.24907,-0.11153 -0.24907,-0.24907 V 3.08391 c 0,-0.13754 0.11153,-0.24907 0.24907,-0.24907 h 5.17157 c 0.13754,0 0.24907,0.11153 0.24907,0.24907 v 5.17157 c 0,0.13754 -0.11153,0.24907 -0.24907,0.24907 z" /></g><g
                 id="g68"><g
                   transform="scale(-1)"
                   id="g70"><g
                     id="g72" /><g
                     transform="rotate(180,-34.483,-15.7325)"
                     id="g74"><g
                       id="g76" /><g
                       transform="translate(5.67,5.67)"
                       id="g78" /><g
                       transform="translate(-68.966,-31.465)"
                       id="g80" /></g></g></g></g><g
               id="g82"><g
                 id="g84"><path
                   id="path86"
                   style="fill:none;stroke:#666666;stroke-width:0.29887;stroke-linecap:butt;stroke-linejoin:miter;stroke-miterlimit:10;stroke-dasharray:none;stroke-opacity:1"
                   d="m 27.38924,8.50455 h -5.17157 c -0.13755,0 -0.24907,-0.11153 -0.24907,-0.24907 V 3.08391 c 0,-0.13754 0.11152,-0.24907 0.24907,-0.24907 h 5.17157 c 0.13754,0 0.24906,0.11153 0.24906,0.24907 v 5.17157 c 0,0.13754 -0.11152,0.24907 -0.24906,0.24907 z" /></g><g
                 id="g88"><g
                   transform="scale(-1)"
                   id="g90"><g
                     id="g92" /><g
                     transform="rotate(180,-34.483,-15.7325)"
                     id="g94"><g
                       id="g96" /><g
                       transform="translate(24.803,5.67)"
                       id="g98" /><g
                       transform="translate(-68.966,-31.465)"
                       id="g100" /></g></g></g></g><g
               id="g102"><g
                 id="g104"><path
                   id="path106"
                   style="fill:none;stroke:#666666;stroke-width:0.29887;stroke-linecap:butt;stroke-linejoin:miter;stroke-miterlimit:10;stroke-dasharray:none;stroke-opacity:1"
                   d="m 46.52296,8.50455 h -5.17155 c -0.13754,0 -0.24907,-0.11153 -0.24907,-0.24907 V 3.08391 c 0,-0.13754 0.11153,-0.24907 0.24907,-0.24907 h 5.17155 c 0.13756,0 0.24907,0.11153 0.24907,0.24907 v 5.17157 c 0,0.13754 -0.11151,0.24907 -0.24907,0.24907 z" /></g><g
                 id="g108"><g
                   transform="scale(-1)"
                   id="g110"><g
                     id="g112" /><g
                     transform="rotate(180,-34.483,-15.7325)"
                     id="g114"><g
                       id="g116" /><g
                       transform="translate(43.937,5.67)"
                       id="g118" /><g
                       transform="translate(-68.966,-31.465)"
                       id="g120" /></g></g></g></g><g
               id="g122"><path
                 id="path124"
                 style="fill:none;stroke:#333333;stroke-width:1.59404004;stroke-linecap:butt;stroke-linejoin:miter;stroke-miterlimit:10;stroke-dasharray:none;stroke-opacity:1"
                 d="M 24.46739,65.23755 C 24.3833,63.83798 22.99895,59.68535 19.13417,53.8316" /><g
                 transform="matrix(0.05988,0.99815,-0.99815,0.05988,24.46739,65.23755)"
                 id="g126"><g
                   id="g128"><path
                     id="path130"
                     style="fill:#333333;fill-opacity:1;fill-rule:nonzero;stroke:#333333;stroke-width:1.24722004;stroke-linecap:butt;stroke-linejoin:miter;stroke-miterlimit:10;stroke-dasharray:none;stroke-opacity:1"
                     d="M 3.04147,0 C 2.66795,0.09763 1.02614,0.65083 0,1.25287 V -1.25287 C 1.02614,-0.65083 2.66795,-0.09763 3.04147,0 Z" /></g></g></g></g></g></g></g></g></svg>