<?xml version="1.0" encoding="UTF-8" standalone="no"?>
<svg
   xmlns:dc="http://purl.org/dc/elements/1.1/"
   xmlns:cc="http://creativecommons.org/ns#"
   xmlns:rdf="http://www.w3.org/1999/02/22-rdf-syntax-ns#"
   xmlns:svg="http://www.w3.org/2000/svg"
   xmlns="http://www.w3.org/2000/svg"
   viewBox="0 0 74.226669 105.2"
   height="105.2"
   width="74.226669"
   xml:space="preserve"
   id="svg2"
   version="1.1"><metadata
     id="metadata8"><rdf:RDF><cc:Work
         rdf:about=""><dc:format>image/svg+xml</dc:format><dc:type
           rdf:resource="http://purl.org/dc/dcmitype/StillImage" /></cc:Work></rdf:RDF></metadata><defs
     id="defs6" /><g
     transform="matrix(1.3333333,0,0,-1.3333333,0,105.2)"
     id="g10"><g
       transform="translate(72,6.9)"
       id="g12"><g
         transform="translate(-68.966,-3.866)"
         id="g14"><g
           id="g16"><g
             id="g18"><g
               id="g20"><g
                 id="g22"><g
                   id="g24"><path
                     id="path26"
                     style="fill:#666666;fill-opacity:1;fill-rule:nonzero;stroke:none"
                     d="m 27.38924,73.03165 h -5.17157 c -0.13755,0 -0.24907,-0.11153 -0.24907,-0.24907 v -1.49442 c 0,-0.13754 0.11152,-0.24906 0.24907,-0.24906 h 5.17157 c 0.13754,0 0.24906,0.11152 0.24906,0.24906 v 1.49442 c 0,0.13754 -0.11152,0.24907 -0.24906,0.24907 z" /></g><g
                   id="g28"><g
                     transform="scale(-1)"
                     id="g30"><g
                       id="g32" /><g
                       transform="rotate(180,-34.483,-1.933)"
                       id="g34"><g
                         id="g36" /><g
                         transform="translate(24.803,72.035)"
                         id="g38" /><g
                         transform="translate(-68.966,-3.866)"
                         id="g40" /></g></g></g></g><g
                 id="g42"><path
                   id="path44"
                   style="fill:#ffffff;fill-opacity:1;fill-rule:nonzero;stroke:#666666;stroke-width:0.3985;stroke-linecap:butt;stroke-linejoin:miter;stroke-miterlimit:10;stroke-dasharray:none;stroke-opacity:1"
                   d="m 0,0.99628 v 70.29188 c 0,0.55024 0.44603,0.99628 0.99628,0.99628 h 47.61435 c 0.55023,0 0.99627,-0.44604 0.99627,-0.99628 V 0.99628 C 49.6069,0.44603 49.16086,0 48.61063,0 H 0.99628 C 0.44603,0 0,0.44603 0,0.99628 Z" /></g><g
                 id="g46"><path
                   id="path48"
                   style="fill:#ebebeb;fill-opacity:1;fill-rule:nonzero;stroke:none"
                   d="M 2.83484,11.3394 V 66.61473 H 46.77203 V 11.3394 Z" /><g
                   id="g50" /><g
                   id="g52" /></g><g
                 id="g54" /><g
                 id="g56"><g
                   id="g58"><path
                     id="path60"
                     style="fill:none;stroke:#666666;stroke-width:0.29887;stroke-linecap:butt;stroke-linejoin:miter;stroke-miterlimit:10;stroke-dasharray:none;stroke-opacity:1"
                     d="M 8.25548,8.50455 H 3.08391 c -0.13754,0 -0.24907,-0.11153 -0.24907,-0.24907 V 3.08391 c 0,-0.13754 0.11153,-0.24907 0.24907,-0.24907 h 5.17157 c 0.13754,0 0.24907,0.11153 0.24907,0.24907 v 5.17157 c 0,0.13754 -0.11153,0.24907 -0.24907,0.24907 z" /></g><g
                   id="g62"><g
                     transform="scale(-1)"
                     id="g64"><g
                       id="g66" /><g
                       transform="rotate(180,-34.483,-1.933)"
                       id="g68"><g
                         id="g70" /><g
                         transform="translate(5.67,5.67)"
                         id="g72" /><g
                         transform="translate(-68.966,-3.866)"
                         id="g74" /></g></g></g></g><g
                 id="g76"><g
                   id="g78"><path
                     id="path80"
                     style="fill:none;stroke:#666666;stroke-width:0.29887;stroke-linecap:butt;stroke-linejoin:miter;stroke-miterlimit:10;stroke-dasharray:none;stroke-opacity:1"
                     d="m 27.38924,8.50455 h -5.17157 c -0.13755,0 -0.24907,-0.11153 -0.24907,-0.24907 V 3.08391 c 0,-0.13754 0.11152,-0.24907 0.24907,-0.24907 h 5.17157 c 0.13754,0 0.24906,0.11153 0.24906,0.24907 v 5.17157 c 0,0.13754 -0.11152,0.24907 -0.24906,0.24907 z" /></g><g
                   id="g82"><g
                     transform="scale(-1)"
                     id="g84"><g
                       id="g86" /><g
                       transform="rotate(180,-34.483,-1.933)"
                       id="g88"><g
                         id="g90" /><g
                         transform="translate(24.803,5.67)"
                         id="g92" /><g
                         transform="translate(-68.966,-3.866)"
                         id="g94" /></g></g></g></g><g
                 id="g96"><g
                   id="g98"><path
                     id="path100"
                     style="fill:none;stroke:#666666;stroke-width:0.29887;stroke-linecap:butt;stroke-linejoin:miter;stroke-miterlimit:10;stroke-dasharray:none;stroke-opacity:1"
                     d="m 46.52296,8.50455 h -5.17155 c -0.13754,0 -0.24907,-0.11153 -0.24907,-0.24907 V 3.08391 c 0,-0.13754 0.11153,-0.24907 0.24907,-0.24907 h 5.17155 c 0.13756,0 0.24907,0.11153 0.24907,0.24907 v 5.17157 c 0,0.13754 -0.11151,0.24907 -0.24907,0.24907 z" /></g><g
                   id="g102"><g
                     transform="scale(-1)"
                     id="g104"><g
                       id="g106" /><g
                       transform="rotate(180,-34.483,-1.933)"
                       id="g108"><g
                         id="g110" /><g
                         transform="translate(43.937,5.67)"
                         id="g112" /><g
                         transform="translate(-68.966,-3.866)"
                         id="g114" /></g></g></g></g></g><g
               id="g116"><path
                 id="path118"
                 style="fill:none;stroke:#333333;stroke-width:0.59776002;stroke-linecap:butt;stroke-linejoin:miter;stroke-miterlimit:10;stroke-dasharray:none;stroke-opacity:1"
                 d="m 29.05528,38.97707 c 0,2.34823 -1.90359,4.25183 -4.25184,4.25183 -2.34826,0 -4.25185,-1.9036 -4.25185,-4.25183 0,-2.34826 1.90359,-4.25185 4.25185,-4.25185 2.34825,0 4.25184,1.90359 4.25184,4.25185 z" /></g><g
               id="g120"><path
                 id="path122"
                 style="fill:none;stroke:#333333;stroke-width:1.59404004;stroke-linecap:butt;stroke-linejoin:miter;stroke-miterlimit:10;stroke-dasharray:none;stroke-opacity:1"
                 d="m 24.80344,43.2289 v 5.72589" /><g
                 transform="rotate(90,-12.075675,36.879115)"
                 id="g124"><g
                   id="g126"><path
                     id="path128"
                     style="fill:#333333;fill-opacity:1;fill-rule:nonzero;stroke:#333333;stroke-width:1.24722004;stroke-linecap:butt;stroke-linejoin:miter;stroke-miterlimit:10;stroke-dasharray:none;stroke-opacity:1"
                     d="M 3.04147,0 C 2.66795,0.09763 1.02614,0.65083 0,1.25287 V -1.25287 C 1.02614,-0.65083 2.66795,-0.09763 3.04147,0 Z" /></g></g></g><g
               id="g130"><path
                 id="path132"
                 style="fill:none;stroke:#333333;stroke-width:1.59404004;stroke-linecap:butt;stroke-linejoin:miter;stroke-miterlimit:10;stroke-dasharray:none;stroke-opacity:1"
                 d="M 24.80344,34.72522 V 28.99933" /><g
                 transform="rotate(-90,26.901385,2.097945)"
                 id="g134"><g
                   id="g136"><path
                     id="path138"
                     style="fill:#333333;fill-opacity:1;fill-rule:nonzero;stroke:#333333;stroke-width:1.24722004;stroke-linecap:butt;stroke-linejoin:miter;stroke-miterlimit:10;stroke-dasharray:none;stroke-opacity:1"
                     d="M 3.04147,0 C 2.66795,0.09763 1.02614,0.65083 0,1.25287 V -1.25287 C 1.02614,-0.65083 2.66795,-0.09763 3.04147,0 Z" /></g></g></g></g></g></g></g></g></svg>