<?xml version="1.0" encoding="UTF-8" standalone="no"?>
<svg
   xmlns:dc="http://purl.org/dc/elements/1.1/"
   xmlns:cc="http://creativecommons.org/ns#"
   xmlns:rdf="http://www.w3.org/1999/02/22-rdf-syntax-ns#"
   xmlns:svg="http://www.w3.org/2000/svg"
   xmlns="http://www.w3.org/2000/svg"
   viewBox="0 0 73.973335 104.2"
   height="104.2"
   width="73.973335"
   xml:space="preserve"
   id="svg2"
   version="1.1"><metadata
     id="metadata8"><rdf:RDF><cc:Work
         rdf:about=""><dc:format>image/svg+xml</dc:format><dc:type
           rdf:resource="http://purl.org/dc/dcmitype/StillImage" /></cc:Work></rdf:RDF></metadata><defs
     id="defs6" /><g
     transform="matrix(1.3333333,0,0,-1.3333333,0,104.2)"
     id="g10"><g
       transform="translate(72,6.152)"
       id="g12"><g
         transform="translate(-69.066,-3.218)"
         id="g14"><g
           id="g16"><g
             id="g18"><g
               id="g20"><path
                 id="path22"
                 style="fill:#ffffff;fill-opacity:1;fill-rule:nonzero;stroke:#666666;stroke-width:0.19925;stroke-linecap:butt;stroke-linejoin:miter;stroke-miterlimit:10;stroke-dasharray:none;stroke-opacity:1"
                 d="m 0,0.99628 v 70.29188 c 0,0.55024 0.44603,0.99628 0.99628,0.99628 h 47.61435 c 0.55023,0 0.99627,-0.44604 0.99627,-0.99628 V 0.99628 C 49.6069,0.44603 49.16086,0 48.61063,0 H 0.99628 C 0.44603,0 0,0.44603 0,0.99628 Z" /></g><g
               id="g24"><path
                 id="path26"
                 style="fill:#e6e6e6;fill-opacity:1;fill-rule:nonzero;stroke:none"
                 d="m 2.83484,12.33568 v 53.28277 c 0,0.55024 0.44604,0.99628 0.99628,0.99628 h 41.94464 c 0.55024,0 0.99627,-0.44604 0.99627,-0.99628 V 12.33568 c 0,-0.55023 -0.44603,-0.99628 -0.99627,-0.99628 H 3.83112 c -0.55024,0 -0.99628,0.44605 -0.99628,0.99628 z" /><g
                 id="g28" /><g
                 id="g30" /></g><g
               id="g32" /><g
               id="g34"><path
                 id="path36"
                 style="fill:none;stroke:#666666;stroke-width:0.19925;stroke-linecap:butt;stroke-linejoin:miter;stroke-miterlimit:10;stroke-dasharray:none;stroke-opacity:1"
                 d="m 2.83484,3.83112 v 3.67715 c 0,0.55023 0.44604,0.99628 0.99628,0.99628 h 3.67715 c 0.55023,0 0.99628,-0.44605 0.99628,-0.99628 V 3.83112 C 8.50455,3.28088 8.0585,2.83484 7.50827,2.83484 H 3.83112 c -0.55024,0 -0.99628,0.44604 -0.99628,0.99628 z" /></g><g
               id="g38"><path
                 id="path40"
                 style="fill:none;stroke:#666666;stroke-width:0.19925;stroke-linecap:butt;stroke-linejoin:miter;stroke-miterlimit:10;stroke-dasharray:none;stroke-opacity:1"
                 d="m 21.96858,3.83112 v 3.67715 c 0,0.55023 0.44605,0.99628 0.99628,0.99628 h 3.67715 c 0.55024,0 0.99628,-0.44605 0.99628,-0.99628 V 3.83112 c 0,-0.55024 -0.44604,-0.99628 -0.99628,-0.99628 h -3.67715 c -0.55023,0 -0.99628,0.44604 -0.99628,0.99628 z" /></g><g
               id="g42"><path
                 id="path44"
                 style="fill:none;stroke:#666666;stroke-width:0.19925;stroke-linecap:butt;stroke-linejoin:miter;stroke-miterlimit:10;stroke-dasharray:none;stroke-opacity:1"
                 d="m 46.77203,3.83112 v 3.67715 c 0,0.55023 -0.44603,0.99628 -0.99627,0.99628 h -3.67714 c -0.55023,0 -0.99628,-0.44605 -0.99628,-0.99628 V 3.83112 c 0,-0.55024 0.44605,-0.99628 0.99628,-0.99628 h 3.67714 c 0.55024,0 0.99627,0.44604 0.99627,0.99628 z" /></g><g
               id="g46"><path
                 id="path48"
                 style="fill:none;stroke:#000000;stroke-width:0.59776002;stroke-linecap:butt;stroke-linejoin:miter;stroke-miterlimit:10;stroke-dasharray:none;stroke-opacity:1"
                 d="m 29.05528,38.97707 c 0,2.34823 -1.90359,4.25183 -4.25184,4.25183 -2.34826,0 -4.25185,-1.9036 -4.25185,-4.25183 0,-2.34826 1.90359,-4.25185 4.25185,-4.25185 2.34825,0 4.25184,1.90359 4.25184,4.25185 z" /></g><g
               id="g50"><path
                 id="path52"
                 style="fill:none;stroke:#000000;stroke-width:1.59404004;stroke-linecap:butt;stroke-linejoin:miter;stroke-miterlimit:10;stroke-dasharray:none;stroke-opacity:1"
                 d="M 20.55159,38.97707 H 14.82571" /><g
                 transform="rotate(180,7.412855,19.488535)"
                 id="g54"><g
                   id="g56"><path
                     id="path58"
                     style="fill:#000000;fill-opacity:1;fill-rule:nonzero;stroke:#000000;stroke-width:1.24722004;stroke-linecap:butt;stroke-linejoin:miter;stroke-miterlimit:10;stroke-dasharray:none;stroke-opacity:1"
                     d="M 3.04147,0 C 2.66795,0.09763 1.02614,0.65083 0,1.25287 V -1.25287 C 1.02614,-0.65083 2.66795,-0.09763 3.04147,0 Z" /></g></g></g><g
               id="g60"><path
                 id="path62"
                 style="fill:none;stroke:#000000;stroke-width:1.59404004;stroke-linecap:butt;stroke-linejoin:miter;stroke-miterlimit:10;stroke-dasharray:none;stroke-opacity:1"
                 d="m 29.05528,38.97707 h 5.72588" /><g
                 transform="translate(34.78116,38.97707)"
                 id="g64"><g
                   id="g66"><path
                     id="path68"
                     style="fill:#000000;fill-opacity:1;fill-rule:nonzero;stroke:#000000;stroke-width:1.24722004;stroke-linecap:butt;stroke-linejoin:miter;stroke-miterlimit:10;stroke-dasharray:none;stroke-opacity:1"
                     d="M 3.04147,0 C 2.66795,0.09763 1.02614,0.65083 0,1.25287 V -1.25287 C 1.02614,-0.65083 2.66795,-0.09763 3.04147,0 Z" /></g></g></g></g></g></g></g></g></svg>